# xmcd
#
# Track frame offsets:
#	150
#	11412
#	25053
#	39695
#	52535
#	64435
#	77710
#	90074
#	101912
#	114126
#	128159
#	141547
#	155586
#	168903
#	180745
#	192295
#	203037
#	214751
#	228395
#	239505
#
# Disc length: 3360 seconds
# Revision: 1
# Processed by: cddbd v1.5.2PL0 Copyright (c) Steve Scherf et al.
# Submitted via: dBpowerAMP V12.0
#
DISCID=070d1e14
DTITLE=Various Artist - The Essential Recordings (1 Of 2)
DYEAR=1996
DGENRE=Country
TTITLE0=Roy Rogers - Hi-Yo, Silver!
TTITLE1=Roy Rogers and The Sons Of The Pioneers - A Little White Cross On The Hill
TTITLE2=The Sons Of The Pioneers - Tumbling Tumbleweeds
TTITLE3=The Sons Of The Pioneers - Way Out There
TTITLE4=The Sons Of The Pioneers - Ride, Ranger, Ride
TTITLE5=Roy Rogers and The Sons Of The Pioneers - Cowboy Night Herd Song
TTITLE6=The Sons Of The Pioneers - When The Golden Train Comes In
TTITLE7=The Sons Of The Pioneers - Hold That Critter Down
TTITLE8=Roy Rogers - Dust
TTITLE9=Roy Rogers - Listen To The Rhythm Of The Range
TTITLE10=Roy Rogers and The Sons Of The Pioneers - Along The Navajo Trail
TTITLE11=Roy Rogers and The Sons Of The Pioneers - Rock Me To Sleep In My Saddle
TTITLE12=Roy Rogers - My Heart Went That-A-Way
TTITLE13=Roy Rogers - San Fernando Valley
TTITLE14=Roy Rogers - Roll On, Texas Moon
TTITLE15=Roy Rogers - Hawaiian Cowboy
TTITLE16=Roy Rogers - The Yellow Rose Of Texas
TTITLE17=Roy Rogers - Saddle Serenade
TTITLE18=Roy Rogers - A Gay Ranchero
TTITLE19=Roy Rogers - Headin' For Texas And Home
EXTD=
EXTT0=
EXTT1=
EXTT2=
EXTT3=
EXTT4=
EXTT5=
EXTT6=
EXTT7=
EXTT8=
EXTT9=
EXTT10=
EXTT11=
EXTT12=
EXTT13=
EXTT14=
EXTT15=
EXTT16=
EXTT17=
EXTT18=
EXTT19=
PLAYORDER=
